<svg xmlns="http://www.w3.org/2000/svg" width="1000" height="180" viewBox="0 0 1000 180">
  <rect x="20" y="55" width="150" height="70" rx="12" fill="#f4f4f4" stroke="#333"/>
  <text x="95" y="83" text-anchor="middle" font-family="Arial" font-size="16">DeepWeeds</text>
  <text x="95" y="105" text-anchor="middle" font-family="Arial" font-size="14">field RGB images</text>
  <line x1="170" y1="90" x2="230" y2="90" stroke="#333" stroke-width="2"/>
  <polygon points="230,90 218,84 218,96" fill="#333"/>
  <rect x="230" y="55" width="150" height="70" rx="12" fill="#f4f4f4" stroke="#333"/>
  <text x="305" y="83" text-anchor="middle" font-family="Arial" font-size="16">Official folds</text>
  <text x="305" y="105" text-anchor="middle" font-family="Arial" font-size="14">train / val / test</text>
  <line x1="380" y1="90" x2="440" y2="90" stroke="#333" stroke-width="2"/>
  <polygon points="440,90 428,84 428,96" fill="#333"/>
  <rect x="440" y="55" width="150" height="70" rx="12" fill="#f4f4f4" stroke="#333"/>
  <text x="515" y="83" text-anchor="middle" font-family="Arial" font-size="16">PyTorch</text>
  <text x="515" y="105" text-anchor="middle" font-family="Arial" font-size="14">ResNet-18 transfer</text>
  <line x1="590" y1="90" x2="650" y2="90" stroke="#333" stroke-width="2"/>
  <polygon points="650,90 638,84 638,96" fill="#333"/>
  <rect x="650" y="55" width="150" height="70" rx="12" fill="#f4f4f4" stroke="#333"/>
  <text x="725" y="83" text-anchor="middle" font-family="Arial" font-size="16">Evaluation</text>
  <text x="725" y="105" text-anchor="middle" font-family="Arial" font-size="14">F1 + confusion matrix</text>
  <line x1="800" y1="90" x2="860" y2="90" stroke="#333" stroke-width="2"/>
  <polygon points="860,90 848,84 848,96" fill="#333"/>
  <rect x="860" y="55" width="120" height="70" rx="12" fill="#f4f4f4" stroke="#333"/>
  <text x="920" y="83" text-anchor="middle" font-family="Arial" font-size="16">Inference</text>
  <text x="920" y="105" text-anchor="middle" font-family="Arial" font-size="14">top-k species</text>
</svg>
