<svg xmlns="http://www.w3.org/2000/svg" width="1200" height="620" viewBox="0 0 1200 620"><rect width="1200" height="620" fill="#f8fafc"/><text x="60" y="70" font-family="Arial" font-size="34" font-weight="700" fill="#111827">Geospatial Land-Cover ML</text><text x="60" y="108" font-family="Arial" font-size="20" fill="#475569">Random Forest classification with spatially aware validation</text><g font-family="Arial"><rect x="90" y="175" width="300" height="300" rx="18" fill="#fff" stroke="#cbd5e1"/><text x="240" y="215" text-anchor="middle" font-size="22" font-weight="700">Predictors</text><rect x="130" y="260" width="75" height="150" fill="#93c5fd"/><rect x="220" y="310" width="75" height="100" fill="#86efac"/><rect x="310" y="225" width="45" height="185" fill="#fde68a"/><text x="240" y="450" text-anchor="middle" font-size="17" fill="#475569">Bands + NDVI + NDWI</text><rect x="450" y="175" width="300" height="300" rx="18" fill="#fff" stroke="#cbd5e1"/><text x="600" y="215" text-anchor="middle" font-size="22" font-weight="700">Classifier</text><circle cx="600" cy="325" r="75" fill="#dcfce7" stroke="#22c55e" stroke-width="4"/><text x="600" y="320" text-anchor="middle" font-size="22" font-weight="700" fill="#166534">Random</text><text x="600" y="350" text-anchor="middle" font-size="22" font-weight="700" fill="#166534">Forest</text><rect x="810" y="175" width="300" height="300" rx="18" fill="#fff" stroke="#cbd5e1"/><text x="960" y="215" text-anchor="middle" font-size="22" font-weight="700">Validation</text><rect x="860" y="270" width="55" height="55" fill="#bbf7d0"/><rect x="925" y="270" width="55" height="55" fill="#e2e8f0"/><rect x="990" y="270" width="55" height="55" fill="#e2e8f0"/><rect x="860" y="335" width="55" height="55" fill="#e2e8f0"/><rect x="925" y="335" width="55" height="55" fill="#bbf7d0"/><rect x="990" y="335" width="55" height="55" fill="#e2e8f0"/><text x="960" y="445" text-anchor="middle" font-size="17" fill="#475569">Spatial block holdout</text><text x="600" y="535" text-anchor="middle" font-size="20" font-weight="700" fill="#0f172a">GeoAI • spatial validation • feature importance • confusion matrix</text></g></svg>